<?xml version="1.0" standalone="no"?>
<!DOCTYPE svg PUBLIC "-//W3C//DTD SVG 20010904//EN"
 "http://www.w3.org/TR/2001/REC-SVG-20010904/DTD/svg10.dtd">
<svg version="1.0" xmlns="http://www.w3.org/2000/svg"
 width="658.000000pt" height="658.000000pt" viewBox="0 0 658.000000 658.000000"
 preserveAspectRatio="xMidYMid meet">

<g transform="translate(0.000000,658.000000) scale(0.100000,-0.100000)"
fill="#000000" stroke="none">
<path d="M0 6078 l0 -502 40 -57 c22 -32 40 -59 40 -61 0 -2 -18 -2 -40 0
l-40 4 0 -2419 0 -2419 35 -13 c40 -14 75 -54 75 -87 0 -12 -11 -35 -24 -51
-24 -28 -24 -29 -5 -52 39 -48 14 -131 -46 -151 l-35 -12 0 -129 0 -129 630 0
630 0 5 23 c7 33 36 209 121 747 42 267 77 486 78 487 1 1 184 -27 406 -63
223 -35 447 -71 499 -78 51 -8 95 -17 98 -20 2 -2 -11 -102 -31 -222 -19 -120
-33 -220 -31 -222 5 -5 78 -18 298 -52 81 -13 147 -27 147 -31 0 -5 -9 -66
-20 -136 -12 -71 -30 -184 -41 -253 -11 -69 -22 -137 -25 -153 l-6 -27 306 0
306 0 0 23 c0 41 13 50 64 43 59 -8 85 -19 113 -45 26 -25 91 -29 99 -6 5 13
9 13 34 0 25 -13 219 -15 1465 -15 l1435 0 0 1123 0 1123 -182 28 c-101 16
-187 32 -191 36 -4 4 4 81 18 171 14 90 29 184 32 209 3 25 9 51 13 59 5 9 54
-51 156 -191 l149 -205 3 280 c1 154 1 281 0 282 -2 2 -208 35 -458 75 -653
103 -813 129 -818 135 -3 2 10 96 27 207 36 222 83 519 130 813 17 105 53 336
81 515 67 431 54 384 104 376 22 -3 240 -37 484 -76 244 -38 445 -70 448 -70
2 0 4 234 4 520 l0 520 -29 0 c-46 0 -60 9 -67 46 -6 30 -10 34 -52 40 -47 7
-49 6 -77 -41 -9 -15 -18 -15 -80 -5 -38 7 -74 16 -79 20 -4 5 -21 43 -36 86
l-27 78 -13 -72 c-6 -39 -16 -75 -21 -78 -5 -3 -23 -2 -41 1 l-31 7 7 57 c4
31 15 106 24 166 l17 110 50 3 c98 6 165 -42 165 -117 0 -37 -6 -51 -31 -77
l-31 -32 22 -61 c13 -34 25 -61 29 -61 3 0 40 66 81 148 l75 147 38 -1 c21 -1
40 -4 43 -7 3 -3 17 -77 30 -164 13 -87 26 -165 28 -173 2 -8 4 130 5 308 l1
322 -844 0 c-929 0 -892 3 -841 -58 22 -27 30 -30 51 -22 14 6 24 6 24 0 0 -5
-9 -12 -21 -15 -12 -4 -18 -12 -15 -21 3 -8 1 -14 -3 -14 -5 0 -7 -8 -4 -19 6
-24 -20 -75 -49 -95 -14 -10 -44 -16 -78 -16 -39 0 -51 -3 -40 -10 8 -5 10
-10 4 -10 -5 0 -14 -19 -20 -42 -9 -42 -10 -43 -44 -40 -19 2 -37 5 -40 7 -4
2 0 48 7 102 7 54 10 107 7 118 -4 16 -3 17 5 5 11 -16 11 -14 15 80 0 19 6
38 11 42 6 4 0 8 -11 8 -15 0 -24 -8 -29 -27 -4 -16 -11 -34 -17 -40 -12 -15
-42 -18 -33 -3 3 6 -4 10 -17 10 -13 0 -32 3 -43 6 -17 4 -21 0 -22 -23 -1
-21 0 -23 6 -10 7 18 8 18 21 1 9 -11 10 -15 3 -10 -7 4 -13 3 -13 -2 0 -15
43 -23 52 -9 5 8 8 7 8 -5 0 -12 8 -18 23 -19 12 0 16 -3 9 -6 -7 -3 -17 -16
-22 -29 -8 -19 -17 -24 -45 -24 -26 0 -35 -4 -36 -17 -1 -12 -4 -10 -9 7 -7
23 -10 20 -14 -15 -1 -5 -5 -16 -9 -23 -9 -14 16 -27 33 -17 6 4 17 1 25 -5 8
-7 21 -10 30 -7 8 4 17 2 20 -4 4 -5 10 -7 14 -5 4 3 8 -1 8 -9 0 -8 -4 -15
-9 -15 -4 0 -8 -9 -8 -20 0 -23 -9 -24 -125 -7 -95 14 -95 14 -72 146 9 47 16
93 16 101 0 8 4 30 7 48 l6 32 -324 0 -325 0 -31 -192 c-16 -106 -50 -316 -73
-465 l-43 -273 -26 0 c-14 0 -117 15 -230 34 -113 18 -429 69 -704 112 l-498
79 5 50 c4 27 27 178 52 334 25 157 45 293 45 303 0 17 -47 18 -1150 18
l-1150 0 0 -502z m4930 434 c0 -3 -9 3 -20 13 -11 10 -20 23 -20 28 0 6 9 0
20 -13 11 -13 20 -25 20 -28z m10 38 c0 -5 -2 -10 -4 -10 -3 0 -8 5 -11 10 -3
6 -1 10 4 10 6 0 11 -4 11 -10z m214 -34 c-3 -8 -1 -17 5 -21 6 -3 11 -1 11 4
0 6 4 11 9 11 5 0 8 -8 7 -17 -2 -10 2 -21 8 -25 7 -5 6 -8 -3 -8 -8 0 -19 -8
-26 -17 -11 -15 -17 -15 -39 -5 -28 12 -86 6 -86 -10 0 -13 26 -38 33 -32 3 3
21 -11 41 -30 19 -20 41 -34 48 -33 7 2 10 2 6 0 -17 -10 -8 -32 10 -26 16 7
16 6 0 -11 -10 -9 -18 -28 -18 -41 0 -13 -7 -30 -15 -39 -18 -17 -20 -30 -3
-20 7 4 8 3 4 -5 -4 -6 -12 -9 -17 -5 -5 3 -15 1 -22 -4 -24 -19 -103 -20
-150 -2 -25 10 -49 15 -53 11 -4 -3 -4 3 1 14 4 11 10 28 13 38 4 16 11 17 41
11 83 -18 125 0 96 41 -7 11 -18 19 -24 18 -6 -2 -11 2 -11 8 0 6 -10 8 -22 5
-13 -3 -17 -3 -10 0 9 4 5 14 -15 33 -25 23 -27 31 -22 70 4 32 14 51 34 68
24 22 36 24 91 21 34 -1 66 1 70 5 11 11 14 9 8 -7z m-1094 -283 c0 -19 -3
-24 -10 -17 -6 6 -8 18 -4 27 9 24 14 21 14 -10z m1427 -155 c-3 -8 -6 -5 -6
6 -1 11 2 17 5 13 3 -3 4 -12 1 -19z m-5002 -238 c-3 -5 -12 -10 -18 -10 -7 0
-6 4 3 10 19 12 23 12 15 0z m3482 -72 c-3 -8 -6 -5 -6 6 -1 11 2 17 5 13 3
-3 4 -12 1 -19z m216 -195 c-7 -2 -19 -2 -25 0 -7 3 -2 5 12 5 14 0 19 -2 13
-5z m134 1 c-3 -3 -12 -4 -19 -1 -8 3 -5 6 6 6 11 1 17 -2 13 -5z m-970 -404
c207 -288 192 -264 157 -256 -16 3 -114 19 -217 35 -104 16 -191 31 -193 34
-2 2 0 28 5 58 6 30 19 115 31 189 28 179 31 193 40 183 4 -4 83 -114 177
-243z m1607 -103 c33 -45 116 -160 184 -255 69 -95 123 -174 121 -176 -2 -2
-101 11 -219 30 -118 18 -219 34 -223 34 -5 0 -6 17 -3 38 49 330 64 412 74
412 4 -1 34 -38 66 -83z m-4259 -107 c3 -5 18 -10 33 -10 15 0 45 -9 67 -20
23 -12 43 -16 49 -11 14 11 91 -1 92 -14 3 -48 20 -173 24 -185 1 -3 2 -16 1
-30 -1 -20 4 -15 20 20 12 25 35 71 50 102 29 57 40 99 18 68 -8 -11 -10 -12
-7 -1 2 8 17 15 33 17 23 2 26 1 15 -7 -11 -7 -6 -9 19 -7 27 2 35 -1 42 -20
5 -14 5 -21 -1 -17 -5 3 -14 -4 -21 -17 -9 -16 -9 -23 0 -26 6 -2 11 -8 11
-13 0 -4 -6 -6 -13 -3 -17 6 -49 -50 -40 -72 4 -11 3 -15 -5 -10 -6 3 -14 -3
-18 -16 -4 -13 -10 -25 -14 -28 -4 -3 -11 -16 -15 -29 -5 -18 -4 -22 5 -16 9
5 11 4 6 -4 -4 -6 -11 -9 -16 -6 -5 3 -16 -8 -25 -25 -12 -23 -22 -30 -45 -30
-17 0 -30 -5 -30 -12 -1 -8 -7 -5 -15 6 -14 18 -20 43 -46 191 -7 39 -17 76
-23 84 -8 11 -8 13 2 7 7 -4 12 -1 12 9 0 9 -4 14 -8 11 -5 -3 -6 9 -4 26 l5
31 -28 -26 c-27 -25 -30 -25 -63 -11 -19 8 -44 14 -56 13 -20 0 -21 -1 -1 -9
19 -8 19 -9 -2 -9 -13 -1 -23 -5 -23 -9 0 -15 24 -32 44 -32 10 0 33 -15 49
-32 17 -18 26 -27 22 -19 -5 9 -4 12 3 7 29 -18 5 -138 -30 -157 -15 -8 -17
-13 -9 -19 9 -5 8 -9 -4 -13 -9 -4 -14 -3 -11 1 2 4 -24 8 -57 8 -87 2 -124 7
-124 19 0 6 -4 23 -8 39 -6 21 -5 27 4 22 6 -4 11 -3 11 2 0 15 38 21 43 8 3
-7 23 -13 46 -14 31 -1 43 3 51 17 8 16 4 24 -21 45 -17 14 -35 26 -40 26 -23
0 -49 42 -49 78 0 33 29 134 30 105 0 -7 5 -13 11 -13 5 0 7 5 3 11 -4 8 0 9
15 4 22 -7 30 10 9 18 -8 3 -7 6 4 6 9 1 20 -3 23 -9z m140 -28 c-3 -3 -11 0
-18 7 -9 10 -8 11 6 5 10 -3 15 -9 12 -12z m-230 -12 c3 -5 1 -10 -4 -10 -6 0
-11 5 -11 10 0 6 2 10 4 10 3 0 8 -4 11 -10z m-18 -52 c-3 -8 -6 -5 -6 6 -1
11 2 17 5 13 3 -3 4 -12 1 -19z m766 -20 c-2 -5 4 -8 14 -8 34 0 43 -19 24
-51 -12 -23 -21 -28 -36 -23 -71 22 -110 10 -132 -43 -12 -30 -12 -37 -1 -44
10 -7 10 -9 1 -9 -28 0 -5 -83 26 -95 9 -4 21 1 28 11 10 14 13 15 14 3 1 -27
18 25 18 59 1 30 3 32 35 32 48 0 55 -14 45 -90 -5 -35 -7 -70 -5 -76 5 -14
-25 -24 -74 -24 -26 0 -31 -3 -20 -10 8 -5 10 -10 4 -10 -6 0 -17 7 -25 16 -7
8 -21 13 -31 11 -10 -3 -18 -1 -18 4 0 4 -7 5 -17 2 -11 -4 -14 -3 -9 5 4 7 1
12 -7 12 -8 0 -22 11 -31 25 -9 14 -20 24 -24 21 -4 -2 -8 33 -9 77 -2 66 1
89 17 117 11 19 22 43 26 53 3 9 12 17 19 17 7 0 25 6 40 14 28 15 137 18 128
4z m-766 -45 c-3 -10 -5 -4 -5 12 0 17 2 24 5 18 2 -7 2 -21 0 -30z m395 -75
c-7 -7 -12 -8 -12 -2 0 14 12 26 19 19 2 -3 -1 -11 -7 -17z m1492 -82 c62 -29
74 -123 22 -174 -19 -20 -35 -25 -79 -26 -60 0 -67 -7 -67 -67 0 -28 -27 -43
-50 -29 -10 6 -11 21 -2 67 6 32 18 101 27 154 l16 96 50 -2 c27 -1 64 -10 83
-19z m191 -58 c83 -194 83 -195 95 -163 6 15 13 49 16 74 7 71 13 88 31 95 16
7 36 -11 27 -25 -4 -7 -33 -200 -34 -222 0 -5 -6 -5 -12 -1 -10 6 -10 4 -2 -7
12 -15 4 -61 -11 -66 -20 -6 -32 14 -76 117 -25 58 -50 104 -55 103 -9 -2 -16
-30 -31 -128 -7 -40 -12 -51 -29 -53 -20 -3 -21 1 -18 53 2 31 8 73 13 93 5
20 13 67 16 105 7 61 9 67 30 67 16 0 26 -11 40 -42z m424 -34 c27 -10 38 -20
34 -30 -4 -11 -17 -13 -57 -8 -43 5 -55 3 -78 -15 -29 -24 -48 -74 -48 -132 0
-46 40 -89 81 -89 34 0 49 23 49 74 0 32 3 36 26 36 l27 0 -7 -65 c-9 -93 -11
-95 -66 -95 -58 0 -86 10 -121 41 -37 33 -46 56 -47 114 -1 68 32 133 84 162
47 27 70 28 123 7z m-1943 -19 c-1 -8 -5 -17 -8 -21 -5 -4 -4 16 1 34 3 9 9
-1 7 -13z m207 -62 c-7 -2 -19 -2 -25 0 -7 3 -2 5 12 5 14 0 19 -2 13 -5z
m2917 -99 c48 -19 60 -38 60 -92 0 -33 -6 -45 -31 -66 -17 -14 -35 -26 -40
-26 -5 0 -14 -12 -19 -26 -9 -22 -14 -25 -38 -19 -36 9 -35 8 -27 52 5 33 11
41 38 49 27 7 32 14 32 39 0 29 -2 30 -50 35 -43 4 -50 8 -53 29 -2 13 2 28
10 32 21 14 74 10 118 -7z m228 -40 c47 -18 65 -47 60 -99 -2 -33 -10 -44 -42
-66 -22 -14 -43 -36 -48 -49 -5 -15 -13 -20 -24 -16 -9 3 -22 6 -30 6 -9 0
-14 11 -14 33 0 40 7 50 45 68 31 15 44 44 27 61 -5 5 -29 11 -53 12 -45 2
-58 18 -45 52 7 19 75 18 124 -2z m248 -46 c40 -31 44 -38 44 -79 0 -30 -7
-43 -35 -68 -20 -17 -40 -31 -44 -31 -5 0 -11 -9 -14 -20 -4 -14 -14 -20 -35
-20 -37 0 -40 5 -34 53 4 32 9 39 33 44 81 16 55 82 -32 83 -19 0 -28 6 -32
22 -9 33 -1 38 62 38 45 0 65 -5 87 -22z m-530 -168 c10 0 14 -12 14 -40 l0
-40 -40 0 c-41 0 -44 4 -40 50 2 28 18 42 38 35 8 -3 20 -5 28 -5z m-2589 -52
c-3 -8 -6 -5 -6 6 -1 11 2 17 5 13 3 -3 4 -12 1 -19z m2821 12 c7 0 12 -14 12
-35 0 -40 -15 -51 -55 -41 -20 5 -25 13 -25 40 0 39 8 49 35 42 11 -3 26 -6
33 -6z m220 -36 c38 -10 27 -84 -12 -84 -39 0 -59 23 -51 58 7 33 18 38 63 26z
m-4475 -41 c-7 -2 -19 -2 -25 0 -7 3 -2 5 12 5 14 0 19 -2 13 -5z m640 -160
c-7 -2 -19 -2 -25 0 -7 3 -2 5 12 5 14 0 19 -2 13 -5z m504 -79 c-3 -3 -12 -4
-19 -1 -8 3 -5 6 6 6 11 1 17 -2 13 -5z m-162 -292 c30 -42 109 -151 175 -241
66 -91 119 -166 117 -167 -1 -1 -24 2 -52 6 -27 5 -124 21 -215 35 -91 15
-166 28 -168 30 -4 4 54 383 64 413 6 20 20 7 79 -76z m1160 -88 c264 -41 481
-77 483 -79 2 -2 -12 -101 -31 -222 -20 -120 -32 -221 -29 -224 4 -4 104 -21
222 -39 118 -18 217 -34 218 -36 2 -1 -19 -148 -47 -326 -29 -178 -61 -379
-72 -448 -72 -456 -110 -684 -114 -689 -3 -2 -67 5 -143 16 -252 38 -1307 206
-1310 208 -2 2 19 146 47 321 175 1108 252 1587 256 1594 3 5 13 6 23 4 9 -2
233 -38 497 -80z m1398 -231 c-7 -2 -19 -2 -25 0 -7 3 -2 5 12 5 14 0 19 -2
13 -5z m357 -56 c12 4 12 3 1 -5 -15 -11 -51 -4 -51 10 0 5 7 5 18 0 9 -5 24
-7 32 -5z m-502 -34 c-1 -19 -4 -29 -9 -22 -4 7 -5 18 -2 26 3 7 0 13 -6 13
-6 0 -11 4 -11 8 0 5 7 9 15 9 10 0 14 -11 13 -34z m-3013 -287 c23 -17 13
-50 -12 -42 -30 9 -149 8 -125 -1 10 -4 9 -9 -4 -24 -11 -12 -18 -42 -22 -87
-4 -62 -2 -71 18 -89 25 -24 82 -36 92 -19 4 6 8 25 8 43 0 33 24 67 44 60 13
-5 10 -106 -5 -144 -9 -24 -12 -25 -61 -19 -114 15 -158 62 -158 168 0 60 35
129 78 152 34 19 122 20 147 2z m154 -25 c13 -8 12 -22 -2 -103 -9 -51 -19
-119 -22 -150 -7 -57 -20 -73 -51 -61 -10 4 -13 14 -10 32 3 14 10 58 16 96 5
39 12 84 15 100 3 17 7 45 10 63 6 32 18 39 44 23z m264 -50 c15 -15 -4 -41
-27 -37 -84 18 -93 17 -100 -6 -14 -53 -8 -65 38 -77 33 -8 44 -15 42 -28 -3
-18 -19 -20 -64 -9 -27 6 -37 -13 -47 -86 -6 -43 -9 -48 -32 -48 l-25 0 7 68
c7 73 35 243 41 253 4 7 156 -20 167 -30z m3560 -148 c-7 -2 -19 -2 -25 0 -7
3 -2 5 12 5 14 0 19 -2 13 -5z m237 -33 c8 -5 11 -10 5 -10 -5 0 -17 5 -25 10
-8 5 -10 10 -5 10 6 0 17 -5 25 -10z m-1373 -222 c-3 -8 -6 -5 -6 6 -1 11 2
17 5 13 3 -3 4 -12 1 -19z m627 -47 c-2 -2 3 -9 12 -15 23 -17 3 -62 -30 -68
-14 -3 -23 -2 -21 2 3 4 -4 10 -15 13 -11 3 -18 1 -14 -4 8 -13 -10 -11 -24 3
-8 8 -18 4 -39 -19 -24 -25 -29 -40 -31 -90 -2 -48 2 -63 18 -81 20 -21 67
-32 55 -12 -3 6 -1 10 6 10 8 0 9 13 5 45 -6 39 -5 45 11 47 43 3 77 -5 97
-23 16 -16 17 -19 4 -14 -12 5 -18 2 -19 -6 -1 -8 -2 -18 -3 -24 -1 -5 -5 -34
-10 -62 l-8 -53 -72 0 c-59 0 -79 4 -106 23 -59 40 -75 71 -75 145 1 132 65
194 197 189 36 -1 64 -4 62 -6z m163 -48 c9 -11 9 -21 2 -36 -6 -10 -9 -32 -7
-49 3 -16 1 -31 -4 -34 -4 -3 -8 -25 -8 -49 0 -24 -4 -46 -10 -50 -5 -3 -7
-12 -4 -19 3 -8 0 -33 -6 -55 -11 -41 -11 -42 -54 -39 -36 3 -42 6 -39 23 1
11 9 63 18 117 8 53 12 104 8 114 -4 10 -2 15 4 11 6 -4 9 6 8 26 -4 51 11 70
48 63 18 -3 37 -14 44 -23z m188 -13 c-4 -6 6 -10 22 -10 45 0 73 -32 49 -56
-18 -18 -98 -27 -107 -12 -11 17 -19 6 -22 -28 -2 -25 2 -29 41 -37 23 -4 42
-11 43 -15 0 -4 2 -20 3 -35 l2 -28 -56 6 c-44 5 -57 4 -57 -7 0 -7 -5 -37
-12 -66 -6 -30 -8 -58 -5 -64 5 -7 2 -8 -6 -3 -7 4 -27 10 -43 12 -17 1 -34 6
-38 11 -4 4 -1 36 7 71 9 36 13 75 9 89 -3 13 -2 21 3 18 8 -5 19 47 28 134 1
14 3 26 3 28 1 1 33 2 72 2 44 0 68 -4 64 -10z m-365 -44 c0 -3 -4 -8 -10 -11
-5 -3 -10 -1 -10 4 0 6 5 11 10 11 6 0 10 -2 10 -4z m-80 -76 c0 -5 -5 -10
-11 -10 -5 0 -7 5 -4 10 3 6 8 10 11 10 2 0 4 -4 4 -10z m257 -12 c-3 -8 -6
-5 -6 6 -1 11 2 17 5 13 3 -3 4 -12 1 -19z m1304 -56 c9 -10 -33 -261 -50
-290 -17 -31 -57 -45 -109 -37 -41 6 -43 8 -40 38 3 29 6 32 32 30 43 -3 53
10 65 85 6 37 14 79 17 93 4 22 1 28 -20 33 -21 5 -26 12 -26 38 l0 31 62 -7
c34 -3 65 -9 69 -14z m-1561 -2 c-8 -5 -22 -9 -30 -9 -10 0 -8 3 5 9 27 12 43
12 25 0z m1778 -34 c67 -34 78 -127 22 -189 -22 -25 -36 -31 -82 -35 l-56 -4
-9 -47 c-8 -45 -10 -46 -43 -43 -19 1 -36 5 -38 7 -5 4 21 191 39 284 l11 54
62 -5 c34 -3 76 -13 94 -22z m-1667 -33 c-12 -20 -14 -14 -5 12 4 9 9 14 11
11 3 -2 0 -13 -6 -23z m1884 5 c44 -6 84 -15 89 -19 5 -4 6 -20 2 -34 -7 -27
-8 -27 -63 -20 -58 7 -73 0 -73 -36 0 -12 13 -19 46 -24 44 -6 45 -7 42 -38
-3 -31 -4 -32 -53 -32 l-50 0 0 -34 c0 -34 1 -35 55 -45 53 -11 55 -12 52 -41
-2 -16 -4 -31 -6 -32 -1 -1 -46 5 -99 14 -82 14 -97 19 -97 35 0 19 36 257 45
296 6 26 6 26 110 10z m348 -57 c29 -11 34 -28 15 -54 -11 -14 -19 -15 -55 -6
-36 10 -47 9 -69 -6 -29 -18 -54 -70 -54 -111 0 -53 56 -110 88 -90 6 3 13 29
17 57 l7 50 37 -3 36 -3 -3 -50 c-2 -27 -7 -66 -11 -85 -7 -35 -7 -35 -66 -38
-76 -3 -140 26 -167 78 -27 48 -20 153 12 205 41 67 126 89 213 56z m-2020
-58 c-7 -2 -19 -2 -25 0 -7 3 -2 5 12 5 14 0 19 -2 13 -5z m474 -335 c-3 -8
-6 -5 -6 6 -1 11 2 17 5 13 3 -3 4 -12 1 -19z m-3931 -210 c184 -251 304 -420
304 -429 0 -6 -6 -7 -12 -2 -7 4 -22 9 -33 10 -173 25 -365 56 -381 61 l-21 7
28 175 c16 96 30 186 33 200 2 14 5 35 5 48 1 12 3 22 5 22 3 0 35 -42 72 -92z
m2492 15 c-10 -2 -26 -2 -35 0 -10 3 -2 5 17 5 19 0 27 -2 18 -5z m222 -43 c0
-5 -2 -10 -4 -10 -3 0 -8 5 -11 10 -3 6 -1 10 4 10 6 0 11 -4 11 -10z m-37 -7
c-7 -2 -19 -2 -25 0 -7 3 -2 5 12 5 14 0 19 -2 13 -5z m534 -79 c-3 -3 -12 -4
-19 -1 -8 3 -5 6 6 6 11 1 17 -2 13 -5z m314 -536 c73 -101 154 -212 181 -247
26 -35 46 -66 44 -69 -3 -2 -47 3 -98 11 -51 8 -143 23 -205 33 -61 9 -116 20
-122 23 -7 5 -6 35 4 96 8 50 22 137 30 195 16 106 23 140 30 140 2 0 64 -82
136 -182z m-4063 -108 c7 -30 18 -72 23 -94 l10 -39 51 83 c51 81 51 82 86 76
19 -3 36 -7 38 -9 8 -7 -33 -328 -43 -338 -6 -6 -22 -7 -37 -3 -24 6 -26 10
-25 53 0 25 4 70 8 99 4 28 6 52 5 52 -2 0 -19 -27 -40 -60 -33 -54 -39 -59
-63 -54 -35 9 -36 10 -50 77 -7 32 -14 57 -16 55 -3 -2 -9 -37 -16 -78 -15
-98 -20 -108 -58 -102 -17 2 -31 10 -31 16 0 7 13 79 30 161 16 83 30 154 30
158 0 5 19 7 43 5 l42 -3 13 -55z m5768 -135 c48 -66 125 -171 171 -232 75
-102 100 -144 73 -128 -5 3 -65 15 -132 26 -231 37 -301 49 -305 53 -3 2 37
269 63 416 l6 34 19 -24 c10 -14 58 -79 105 -145z m-5345 118 c67 -26 88 -102
47 -174 -23 -41 -60 -59 -125 -59 -31 0 -33 -2 -33 -33 0 -48 -18 -66 -57 -60
-18 3 -33 10 -33 17 0 6 11 81 25 166 14 85 25 159 25 163 0 12 107 -3 151
-20z"/>
<path d="M2385 4608 c-2 -7 -6 -35 -7 -63 -3 -49 -3 -50 28 -53 19 -2 38 3 48
13 22 22 21 84 -1 101 -23 17 -62 18 -68 2z"/>
<path d="M2097 2523 c-4 -3 -7 -14 -7 -24 0 -14 10 -19 46 -21 52 -3 70 -21
61 -59 -4 -17 -17 -28 -39 -34 -29 -9 -33 -14 -33 -45 0 -44 30 -55 45 -16 5
14 16 26 23 26 27 0 67 48 67 80 0 44 -16 70 -55 86 -36 15 -97 19 -108 7z"/>
<path d="M2317 2484 c-3 -4 -2 -15 4 -25 7 -14 21 -19 48 -19 45 0 66 -20 57
-55 -4 -17 -16 -27 -39 -33 -28 -7 -32 -13 -35 -45 -3 -34 -1 -37 22 -37 17 0
26 6 26 15 0 9 11 20 24 25 13 4 33 21 45 36 36 46 24 101 -29 129 -29 15
-111 21 -123 9z"/>
<path d="M2557 2453 c-34 -9 -14 -37 32 -45 24 -4 49 -12 56 -18 26 -22 -1
-80 -37 -80 -20 0 -25 -8 -32 -52 -4 -24 -1 -28 21 -28 15 0 27 7 30 18 2 9
21 26 41 37 67 36 66 129 -2 155 -34 12 -88 19 -109 13z"/>
<path d="M2101 2246 c-12 -31 -2 -46 30 -46 25 0 29 4 29 29 0 23 -5 30 -26
34 -20 3 -27 0 -33 -17z"/>
<path d="M2326 2203 c-8 -29 7 -45 39 -41 24 3 33 46 13 59 -25 16 -46 9 -52
-18z"/>
<path d="M2554 2176 c-11 -29 1 -51 28 -54 22 -3 29 2 34 22 3 14 3 30 -1 35
-9 16 -55 13 -61 -3z"/>
<path d="M5636 1898 c-3 -13 -7 -38 -9 -55 -3 -30 -1 -33 23 -33 34 0 50 17
50 55 0 17 -5 36 -12 43 -20 20 -47 14 -52 -10z"/>
<path d="M616 419 c-12 -62 -8 -81 17 -77 31 4 50 25 50 54 0 56 -56 75 -67
23z"/>
<path d="M2790 6572 c0 -28 76 -62 139 -62 49 0 60 11 61 58 0 15 -52 16 -68
0 -9 -9 -18 -9 -37 0 -30 14 -95 16 -95 4z"/>
<path d="M3060 6554 c-17 -43 -12 -63 15 -70 33 -8 34 -7 41 49 7 46 6 47 -20
47 -19 0 -29 -7 -36 -26z"/>
<path d="M3200 6573 c-1 -5 -5 -27 -9 -51 -8 -43 -3 -54 27 -58 15 -3 26 23
35 79 6 36 5 37 -24 37 -16 0 -29 -3 -29 -7z"/>
<path d="M4738 6573 c6 -2 18 -2 25 0 6 3 1 5 -13 5 -14 0 -19 -2 -12 -5z"/>
<path d="M4795 6570 c3 -5 19 -10 35 -10 16 0 32 5 35 10 4 6 -10 10 -35 10
-25 0 -39 -4 -35 -10z"/>
<path d="M4778 6484 c-7 -92 -7 -94 18 -94 26 0 51 34 33 46 -8 5 -7 9 2 14 9
6 9 12 -4 24 -19 19 -31 21 -22 4 4 -7 -1 -4 -9 6 -16 20 -16 20 -18 0z"/>
<path d="M6143 6228 c-9 -58 -1 -68 36 -48 30 15 37 56 16 80 -29 33 -43 24
-52 -32z"/>
<path d="M6435 6141 c-16 -36 -17 -44 -4 -52 36 -23 48 5 30 70 -6 23 -8 22
-26 -18z"/>
<path d="M6562 4583 c-7 -43 -15 -95 -18 -115 -6 -34 -4 -38 15 -38 20 0 21 4
21 115 0 63 -2 115 -3 115 -2 0 -9 -35 -15 -77z"/>
<path d="M5780 4107 c0 -21 7 -27 38 -34 20 -5 36 -14 35 -19 -5 -31 -26 -176
-30 -215 -5 -42 -3 -47 18 -52 13 -3 25 -4 28 -1 3 2 14 62 26 132 l21 127 44
5 c36 4 46 9 48 26 3 18 -5 22 -80 33 -46 6 -98 14 -115 18 -30 5 -33 3 -33
-20z"/>
<path d="M6064 4076 c-4 -11 -29 -157 -43 -256 -9 -57 -3 -70 31 -70 18 0 20
6 42 140 31 186 31 187 1 192 -15 3 -28 1 -31 -6z"/>
<path d="M6189 4048 c0 -7 -10 -78 -23 -156 l-23 -144 24 -11 c13 -5 26 -7 29
-4 4 4 12 35 18 69 l11 63 50 0 c43 0 50 3 50 19 0 15 -11 22 -45 30 -25 6
-44 14 -42 19 1 4 2 21 2 38 l0 32 65 -7 c55 -5 65 -4 65 9 0 8 0 18 0 22 1
10 -102 32 -147 33 -20 0 -33 -5 -34 -12z"/>
<path d="M6426 4008 c-7 -27 -35 -205 -43 -264 -4 -37 -2 -42 18 -47 32 -8 36
-3 43 50 12 85 11 84 67 77 48 -6 49 -6 49 19 0 23 -5 27 -45 33 -47 7 -51 14
-38 63 5 21 10 23 54 19 48 -5 49 -4 49 22 0 26 -3 28 -61 34 -33 4 -67 10
-74 12 -9 4 -16 -3 -19 -18z"/>
<path d="M0 520 c0 -33 15 -41 22 -12 6 21 -1 42 -13 42 -5 0 -9 -13 -9 -30z"/>
<path d="M1 370 c0 -33 1 -34 11 -12 8 17 8 26 0 34 -9 9 -12 4 -11 -22z"/>
<path d="M1640 315 c0 -21 5 -25 30 -25 19 0 33 -6 37 -17 4 -9 -1 -64 -10
-122 -24 -146 -23 -151 11 -151 l29 0 17 120 c21 153 21 151 63 148 25 -2 39
2 46 14 6 9 9 19 6 22 -7 8 -167 36 -201 36 -23 0 -28 -4 -28 -25z"/>
<path d="M1920 277 c0 -12 -7 -54 -15 -92 -8 -39 -17 -96 -21 -127 l-7 -58 30
0 30 0 21 138 c12 75 22 143 22 150 0 7 -13 12 -30 12 -24 0 -30 -4 -30 -23z"/>
<path d="M2057 266 c-4 -9 -13 -60 -22 -114 -8 -53 -18 -109 -21 -125 -5 -25
-3 -27 24 -27 32 0 42 14 42 57 0 25 2 26 49 20 44 -5 51 -4 56 14 9 26 5 30
-44 36 -40 6 -41 7 -41 45 0 46 10 51 73 39 41 -7 49 -6 57 9 13 24 -3 36 -60
44 -25 4 -59 9 -76 12 -23 4 -33 1 -37 -10z"/>
<path d="M2282 189 c-6 -30 -13 -72 -17 -94 -3 -22 -8 -52 -11 -67 -5 -26 -3
-28 24 -28 21 0 31 6 35 20 4 17 14 20 57 20 48 0 51 2 48 22 -2 18 -11 24
-38 26 -46 4 -54 14 -46 56 l7 36 62 -3 c56 -2 62 0 65 19 3 19 -3 22 -50 28
-29 4 -69 10 -90 13 l-36 5 -10 -53z"/>
<path d="M3425 10 c-4 -6 7 -10 25 -10 18 0 29 4 25 10 -3 6 -15 10 -25 10
-10 0 -22 -4 -25 -10z"/>
</g>
</svg>
